<svg xmlns="http://www.w3.org/2000/svg" viewBox="0 -0.5 32 32" shape-rendering="crispEdges">
<path stroke="#ffd541" d="M0 0h5M0 1h5M0 2h5M0 3h4M0 4h3" />
<path stroke="#5bdcf9" d="M5 0h1M5 1h1M5 2h1M4 3h1M3 4h1M0 5h3" />
<path stroke="#2dd4f9" d="M6 0h26M6 1h5M15 1h17M6 2h3M11 2h7M20 2h12M5 3h1M13 3h1M15 3h1M21 3h1M23 3h1M27 3h1M29 3h1M31 3h1M4 4h1M14 4h1M16 4h1M18 4h1M20 4h1M22 4h1M30 4h1" />
<path stroke="#ffffff" d="M11 1h4M9 2h2M18 2h2M6 3h6M24 3h3M13 5h2M19 6h2" />
<path stroke="#12cdf8" d="M12 3h1M14 3h1M16 3h1M22 3h1M28 3h1M30 3h1M13 4h1M15 4h1M17 4h1M19 4h1M21 4h1M31 4h1M3 5h4M10 5h3M15 5h17M0 6h12M17 6h2M21 6h11M1 7h1M3 7h1M5 7h1M7 7h1M9 7h1M11 7h1M13 7h1M15 7h1M17 7h1M19 7h1M21 7h1M23 7h1M25 7h1M27 7h1M29 7h1M31 7h1M0 8h1M2 8h1M4 8h1M6 8h1M8 8h1M10 8h1M12 8h1M14 8h1M16 8h1M18 8h1M20 8h1M22 8h1M24 8h1M26 8h1M28 8h1M30 8h1" />
<path stroke="#e6e6e6" d="M17 3h4M23 4h7M7 5h3M12 6h5" />
<path stroke="#f2f2f2" d="M5 4h8" />
<path stroke="#07bbe4" d="M0 7h1M2 7h1M4 7h1M6 7h1M8 7h1M10 7h1M12 7h1M14 7h1M16 7h1M18 7h1M20 7h1M22 7h1M24 7h1M26 7h1M28 7h1M30 7h1M1 8h1M3 8h1M5 8h1M7 8h1M9 8h1M11 8h1M13 8h1M15 8h1M17 8h1M19 8h1M21 8h1M23 8h1M25 8h1M27 8h1M29 8h1M31 8h1M0 9h32M0 10h32" />
<path stroke="#085780" d="M0 11h32" />
<path stroke="#2188bc" d="M0 12h32M0 13h32M1 14h1M3 14h1M5 14h1M7 14h1M9 14h1M11 14h1M13 14h1M15 14h1M17 14h1M19 14h1M21 14h1M23 14h1M25 14h1M27 14h1M29 14h1M0 15h1M2 15h1M6 15h1M8 15h1M10 15h1M12 15h1M14 15h1M16 15h1M18 15h1M20 15h1M22 15h1M24 15h1M1 16h1M7 16h1M0 17h1" />
<path stroke="#249fde" d="M0 14h1M2 14h1M6 14h1M8 14h1M10 14h1M12 14h1M14 14h1M16 14h1M18 14h1M20 14h1M22 14h1M24 14h1M26 14h1M28 14h1M30 14h1M1 15h1M7 15h1M9 15h1M11 15h1M13 15h1M15 15h1M17 15h1M19 15h1M21 15h1M23 15h1M25 15h1M0 16h1" />
<path stroke="#9c603b" d="M4 14h1M3 15h1M5 15h1M2 16h1M6 16h1M2 17h1M6 17h1M2 18h1M6 18h1M2 19h1M6 19h1M2 20h1M6 20h1M3 21h3" />
<path stroke="#e2f5ff" d="M31 14h1M26 15h6M31 16h1M30 17h1M13 20h5M11 21h4M9 22h4M7 23h5M5 24h5M4 25h3M3 26h3M1 27h2M0 28h2" />
<path stroke="#bb7547" d="M4 15h1M3 16h3M3 17h3M3 19h3M3 20h3" />
<path stroke="#ad622b" d="M8 16h2M12 16h13M26 16h2M8 17h4M14 17h1M21 17h2M26 17h3M11 18h4M16 18h3M21 18h4M26 18h4" />
<path stroke="#965526" d="M10 16h2M25 16h1M28 16h1M12 17h2M15 17h4M20 17h1M23 17h3M29 17h1M8 18h3M15 18h1M19 18h2M25 18h1M30 18h1" />
<path stroke="#c3d5de" d="M29 16h2M18 20h2M15 21h1M13 22h1M12 23h1M10 24h2M7 25h1M3 27h1M2 28h1M0 29h2" />
<path stroke="#2fa3de" d="M1 17h1M7 17h1M0 18h2M7 18h1M0 19h2M7 19h1M0 20h2M7 20h2M10 20h3M1 21h1M7 21h1M0 22h9M1 23h1M3 23h1M5 23h1M0 24h1M2 24h1M4 24h1" />
<path stroke="#382112" d="M19 17h1" />
<path stroke="#dba463" d="M31 17h1M31 18h1M20 20h6M28 20h1M16 21h8M14 22h8M13 23h6M12 24h7M8 25h6M6 26h7M14 26h1M4 27h8M3 28h6M2 29h6M0 30h5M0 31h6" />
<path stroke="#422433" d="M3 18h3" />
<path stroke="#522e14" d="M8 19h23" />
<path stroke="#f4d29c" d="M31 19h1M26 20h2M29 20h3M24 21h8M22 22h6M19 23h6M26 23h2M19 24h2M23 24h1M14 25h6M31 25h1M13 26h1M15 26h2M28 26h3M12 27h3M16 27h1M26 27h2M9 28h7M24 28h1M8 29h2M23 29h1M5 30h8M20 30h3M6 31h2M10 31h1M17 31h3" />
<path stroke="#20140c" d="M9 20h1M9 21h1" />
<path stroke="#3abdff" d="M0 21h1M2 21h1M6 21h1M8 21h1M10 21h1M0 23h1M2 23h1M4 23h1M6 23h1M1 24h1M3 24h1M0 25h4M0 26h3M0 27h1" />
<path stroke="#fef3c0" d="M28 22h3M25 23h1M28 23h4M21 24h1M24 24h3M28 24h1M30 24h2M21 25h4M26 25h5M18 26h3M22 26h3M27 26h1M15 27h1M17 27h1M19 27h2M22 27h4M16 28h4M22 28h2M10 29h4M15 29h8M13 30h4M18 30h2M8 31h2M11 31h6" />
<path stroke="#f6eab1" d="M31 22h1M22 24h1M27 24h1M29 24h1M20 25h1M25 25h1M17 26h1M21 26h1M25 26h2M18 27h1M21 27h1M20 28h2M14 29h1M17 30h1" />
<path stroke="#14a02e" d="M31 26h1M28 27h3M25 28h5M24 29h5M23 30h3M20 31h4" />
<path stroke="#59c135" d="M31 27h1M29 29h1M31 29h1M27 30h2M30 30h1M24 31h2M28 31h2M31 31h1" />
<path stroke="#67b030" d="M30 28h1M30 29h1M26 30h1M26 31h2" />
<path stroke="#77c736" d="M31 28h1M29 30h1M31 30h1M30 31h1" />
</svg>
